<!DOCTYPE svg PUBLIC "-//W3C//DTD SVG 1.1//EN" "http://www.w3.org/Graphics/SVG/1.1/DTD/svg11.dtd">
<!-- Uploaded to: SVG Repo, www.svgrepo.com, Transformed by: SVG Repo Mixer Tools -->
<svg width="800px" height="800px" viewBox="-3.84 -3.84 31.68 31.68" xmlns="http://www.w3.org/2000/svg" id="suitcase-bag" class="icon glyph" fill="#ffffff" stroke="#ffffff" stroke-width="0.40800000000000003">
<g id="SVGRepo_bgCarrier" stroke-width="0" transform="translate(0,0), scale(1)">
<path transform="translate(-3.84, -3.84), scale(1.98)" fill="#5a9264" d="M9.166.33a2.25 2.25 0 00-2.332 0l-5.25 3.182A2.25 2.25 0 00.5 5.436v5.128a2.25 2.25 0 001.084 1.924l5.25 3.182a2.25 2.25 0 002.332 0l5.25-3.182a2.25 2.25 0 001.084-1.924V5.436a2.25 2.25 0 00-1.084-1.924L9.166.33z" strokewidth="0"/>
</g>
<g id="SVGRepo_tracerCarrier" stroke-linecap="round" stroke-linejoin="round" stroke="#CCCCCC" stroke-width="0.144"/>
<g id="SVGRepo_iconCarrier">
<path d="M21,6H3A1,1,0,0,0,2,7v6.28a2,2,0,0,0,1.37,1.9l4.52,1.51a13.13,13.13,0,0,0,8.22,0l4.54-1.52A2,2,0,0,0,22,13.28V7A1,1,0,0,0,21,6Zm-8,7H11a1,1,0,0,1,0-2h2a1,1,0,0,1,0,2Zm7.6,3.25-.5,4a2,2,0,0,1-2,1.76H5.88a2,2,0,0,1-2-1.76l-.5-4,4.18,1.39a14.06,14.06,0,0,0,4.42.71,14.16,14.16,0,0,0,4.43-.71ZM14,2H10A4,4,0,0,0,6.13,5H8.27A2,2,0,0,1,10,4h4a2,2,0,0,1,1.73,1h2.14A4,4,0,0,0,14,2Z" style="fill:#231f20"/>
</g>
</svg>