<?xml version="1.0" encoding="utf-8"?>
<svg xmlns="http://www.w3.org/2000/svg" fill="none" viewBox="0 0 128 128" xmlns:bx="https://boxy-svg.com" width="128px" height="128px"><defs><radialGradient gradientUnits="userSpaceOnUse" cx="64" cy="65.45" r="42.1" id="gradient-1"><stop offset="0" style="stop-color: rgb(200, 0, 255);"/><stop offset="1" style="stop-color: rgb(123, 0, 255);"/></radialGradient><bx:export><bx:file format="svg" path="Sin título.svg"/></bx:export></defs><path d="M 50.4 74.5 C 40.539 74.905 30.854 77.25 21.9 81.4 L 46.1 15.7 C 46.8 13.7 48 12.5 49.5 12.5 L 78.5 12.5 C 80 12.5 81.2 13.7 81.9 15.7 L 106.1 81.4 C 106.1 81.4 94.5 74.4 77.6 74.4 L 67 41.5 C 66.6 39.8 65.4 38.7 64.1 38.7 C 62.8 38.7 61.6 39.8 61.2 41.4 L 50.4 74.5 Z M 49.3 102.7 Z M 45.1 82.5 C 43.1 89.1 44.5 98.3 49.3 102.7 C 49.362 102.465 49.428 102.232 49.5 102 C 49.999 99.281 52.439 97.354 55.2 97.5 C 58 97.6 59.5 99 59.9 102.2 C 60.1 103.3 60.1 104.5 60.1 105.7 L 60.1 106.1 C 60.1 108.8 60.8 111.3 62.3 113.5 C 63.676 115.659 65.659 117.364 68 118.4 L 68 118.1 L 67.8 117.8 C 66 112.2 67.3 108.3 72.2 105 L 73.7 104 C 74.786 103.295 75.853 102.562 76.9 101.8 C 80.71 99.164 83.191 95.005 83.7 90.4 C 84 88.4 83.8 86.4 83.1 84.4 L 82.3 85 L 80.7 86 C 73.697 89.21 65.866 90.154 58.3 88.7 C 53.3 88 48.6 86.7 45.1 82.5 Z" style="fill-rule: nonzero; paint-order: fill; fill: url(&quot;#gradient-1&quot;);"/><style>path { fill: rgb(0, 0, 0); }
@media (prefers-color-scheme: dark) {
  path { fill: rgb(123, 0, 255); }
}</style></svg>